<svg width="20" height="20" viewBox="0 0 20 20" fill="none" xmlns="http://www.w3.org/2000/svg">
<g id="icn favorite">
<path id="Vector" d="M10.0002 5.95324L8.63577 4.55662L8.63521 4.55605C8.28731 4.20177 7.87231 3.92037 7.41444 3.72827C6.95657 3.53617 6.46502 3.43723 5.96849 3.43723C5.47196 3.43723 4.9804 3.53617 4.52253 3.72827C4.06474 3.92033 3.64981 4.20167 3.30195 4.55586C2.58795 5.2808 2.18773 6.25748 2.18773 7.275C2.18773 8.29259 2.58801 9.26935 3.30211 9.9943L3.30239 9.99459L9.77739 16.5508L9.99974 16.776L10.2221 16.5508L16.6971 9.99459L16.6974 9.9943C17.4115 9.26935 17.8117 8.29259 17.8117 7.275C17.8117 6.25752 17.4116 5.28088 16.6976 4.55595C16.3499 4.20148 15.935 3.91997 15.4771 3.72791C15.0193 3.53591 14.5278 3.43718 14.0314 3.4375C14.0312 3.4375 14.031 3.4375 14.0307 3.4375L14.031 3.75M10.0002 5.95324L11.3571 4.56949L11.3579 4.5687L11.581 4.7875M10.0002 5.95324L11.3563 4.57036M10.0002 5.95324L11.3563 4.57036M14.031 3.75C13.5738 3.74935 13.1213 3.84089 12.7003 4.01915C12.2793 4.19741 11.8986 4.45874 11.581 4.7875M14.031 3.75C14.486 3.74962 14.9366 3.84008 15.3562 4.01609C15.7758 4.1921 16.1561 4.45011 16.4747 4.775L14.031 3.75ZM11.581 4.7875L11.3563 4.57036M11.581 4.7875L11.3563 4.57036M14.0307 2.8125L14.0309 2.8125C14.6108 2.81266 15.1849 2.92827 15.7196 3.15259C16.2544 3.37691 16.7391 3.70544 17.1456 4.11904C17.9745 4.96287 18.4389 6.09841 18.4389 7.28125C18.4389 8.46391 17.9746 9.59929 17.146 10.4431C17.1458 10.4432 17.1457 10.4434 17.1456 10.4435L9.99974 17.6802L2.85392 10.4435C2.85381 10.4434 2.85371 10.4433 2.8536 10.4432C2.02488 9.59939 1.56055 8.46396 1.56055 7.28125C1.56055 6.09846 2.02495 4.96295 2.85378 4.11913C3.26036 3.70575 3.74515 3.37744 4.27991 3.15333C4.81466 2.92923 5.38867 2.81381 5.96849 2.81381C6.5483 2.81381 7.12232 2.92923 7.65707 3.15333C8.19182 3.37744 8.67662 3.70575 9.08319 4.11913L9.08403 4.11998L9.77778 4.81998L9.99974 5.04394L10.2217 4.81998L10.9155 4.11998L10.9166 4.11879C11.3226 3.70475 11.8072 3.37593 12.3419 3.15161C12.8767 2.9273 13.4508 2.81201 14.0307 2.8125Z" fill="#BDBDBD" stroke="#252B42" stroke-width="0.625"/>
</g>
</svg>
