<svg width="23" height="23" viewBox="0 0 23 23" fill="none" xmlns="http://www.w3.org/2000/svg">
<g id="icn bxs-star">
<path id="Vector" d="M20.1379 8.41964C20.0802 8.24983 19.9741 8.10061 19.8326 7.99043C19.6911 7.88024 19.5205 7.81389 19.3417 7.79959L14.1126 7.38408L11.8498 2.37506C11.7777 2.21373 11.6605 2.07671 11.5123 1.98052C11.364 1.88434 11.1912 1.8331 11.0145 1.83301C10.8378 1.83291 10.6648 1.88395 10.5165 1.97998C10.3682 2.076 10.2508 2.2129 10.1786 2.37415L7.91575 7.38408L2.68659 7.79959C2.5109 7.8135 2.34294 7.87774 2.2028 7.98462C2.06267 8.0915 1.95629 8.23648 1.89639 8.40224C1.83649 8.56799 1.82562 8.74749 1.86507 8.91926C1.90452 9.09103 1.99261 9.2478 2.11883 9.37081L5.98313 13.1379L4.61645 19.0559C4.57496 19.235 4.58826 19.4225 4.65463 19.594C4.721 19.7655 4.83738 19.913 4.98867 20.0175C5.13996 20.1221 5.31916 20.1787 5.50304 20.1801C5.68691 20.1815 5.86696 20.1276 6.01982 20.0254L11.0142 16.6958L16.0085 20.0254C16.1647 20.1291 16.349 20.1825 16.5365 20.1784C16.724 20.1743 16.9057 20.1129 17.0573 20.0024C17.2088 19.8919 17.3229 19.7377 17.3841 19.5604C17.4454 19.3832 17.4509 19.1914 17.3999 19.0109L15.7223 13.1406L19.8829 9.39649C20.1553 9.15067 20.2553 8.76727 20.1379 8.41964Z" fill="#F3CD03"/>
</g>
</svg>
